<svg width="15" height="16" viewBox="0 0 15 16" fill="none" xmlns="http://www.w3.org/2000/svg">
<path d="M7.18075 2.10614L4.82373 4.46316L6.00224 5.64168L8.35927 3.28465C9.33154 2.31238 10.9225 2.31238 11.8948 3.28465C12.8671 4.25692 12.8671 5.84792 11.8948 6.82019L9.53778 9.17721L10.7163 10.3557L13.0733 7.9987C14.6997 6.37235 14.6997 3.73249 13.0733 2.10614C11.447 0.479796 8.8071 0.479796 7.18075 2.10614ZM8.35927 10.3557L6.00224 12.7127C5.02997 13.685 3.43898 13.685 2.46671 12.7127C1.49444 11.7405 1.49444 10.1495 2.46671 9.17721L4.82373 6.82019L3.64522 5.64168L1.2882 7.9987C-0.338148 9.62504 -0.338148 12.2649 1.2882 13.8913C2.91454 15.5176 5.55441 15.5176 7.18075 13.8913L9.53778 11.5342L8.35927 10.3557ZM4.23448 9.76647L8.94852 5.05242L10.127 6.23093L5.41299 10.945L4.23448 9.76647Z" fill="#1C4980"/>
</svg>
