<svg width="20" height="15" viewBox="0 0 20 15" fill="none" xmlns="http://www.w3.org/2000/svg">
<path d="M16.6667 13C17.5833 13 18.325 12.25 18.325 11.3333L18.3333 2.16667C18.3333 1.25 17.5833 0.5 16.6667 0.5H3.33333C2.41667 0.5 1.66667 1.25 1.66667 2.16667V11.3333C1.66667 12.25 2.41667 13 3.33333 13H0C0 13.9167 0.75 14.6667 1.66667 14.6667H18.3333C19.25 14.6667 20 13.9167 20 13H16.6667ZM3.33333 2.16667H16.6667V11.3333H3.33333V2.16667ZM10 13.8333C9.54167 13.8333 9.16667 13.4583 9.16667 13C9.16667 12.5417 9.54167 12.1667 10 12.1667C10.4583 12.1667 10.8333 12.5417 10.8333 13C10.8333 13.4583 10.4583 13.8333 10 13.8333Z" fill="#1C4980"/>
</svg>
