<svg width="16" height="17" viewBox="0 0 16 17" fill="none" xmlns="http://www.w3.org/2000/svg">
<path d="M4.00497 13.495H5.50497L10.4108 8.58925L8.91076 7.08925L4.00497 11.995V13.495ZM11.1191 7.88092L11.8691 7.13092C11.9802 7.01981 12.0358 6.90175 12.0358 6.77675C12.0358 6.65175 11.9802 6.5337 11.8691 6.42259L11.0774 5.63092C10.9663 5.51981 10.8483 5.46425 10.7233 5.46425C10.5983 5.46425 10.4802 5.51981 10.3691 5.63092L9.6191 6.38092L11.1191 7.88092ZM2.55978 16.6694C2.08426 16.6694 1.67718 16.5001 1.33856 16.1615C0.999916 15.8228 0.830597 15.4158 0.830597 14.9402V4.05981C0.830597 3.58429 0.999916 3.17721 1.33856 2.83858C1.67718 2.49995 2.08426 2.33063 2.55978 2.33063H5.95787C6.09223 1.89343 6.3448 1.53413 6.71558 1.25273C7.08634 0.971329 7.51448 0.830627 7.99999 0.830627C8.48551 0.830627 8.91364 0.971329 9.28441 1.25273C9.65519 1.53413 9.90776 1.89343 10.0421 2.33063H13.4402C13.9157 2.33063 14.3228 2.49995 14.6614 2.83858C15.0001 3.17721 15.1694 3.58429 15.1694 4.05981V14.9402C15.1694 15.4158 15.0001 15.8228 14.6614 16.1615C14.3228 16.5001 13.9157 16.6694 13.4402 16.6694H2.55978ZM2.55978 14.9402H13.4402V4.05981H2.55978V14.9402ZM7.99999 3.53988C8.15595 3.53988 8.28492 3.48889 8.38689 3.38692C8.48886 3.28495 8.53985 3.15598 8.53985 3.00002C8.53985 2.84406 8.48886 2.7151 8.38689 2.61313C8.28492 2.51116 8.15595 2.46017 7.99999 2.46017C7.84403 2.46017 7.71507 2.51116 7.6131 2.61313C7.51113 2.7151 7.46014 2.84406 7.46014 3.00002C7.46014 3.15598 7.51113 3.28495 7.6131 3.38692C7.71507 3.48889 7.84403 3.53988 7.99999 3.53988Z" fill="#0073E6"/>
</svg>
